<?xml version="1.0" encoding="utf-8"?>
<!-- Generator: Adobe Illustrator 26.0.1, SVG Export Plug-In . SVG Version: 6.00 Build 0)  -->
<svg version="1.1" id="Capa_1" xmlns="http://www.w3.org/2000/svg" xmlns:xlink="http://www.w3.org/1999/xlink" x="0px" y="0px"
	 viewBox="0 0 1366 300" style="enable-background:new 0 0 1366 300;" xml:space="preserve">
<style type="text/css">
	.st0{clip-path:url(#SVGID_00000120530365591266256480000011534789569321073806_);fill:#1D5BE6;}
	.st1{clip-path:url(#SVGID_00000120530365591266256480000011534789569321073806_);fill:#1BD665;}
	.st2{clip-path:url(#SVGID_00000120530365591266256480000011534789569321073806_);fill:#FFFFFF;}
	.st3{clip-path:url(#SVGID_00000120530365591266256480000011534789569321073806_);}
	.st4{fill:#FFFFFF;}
	.st5{fill:#F29100;}
	.st6{fill:#0E0916;}
	.st7{clip-path:url(#SVGID_00000120530365591266256480000011534789569321073806_);fill:#0E0916;}
</style>
<g>
	<defs>
		<rect id="SVGID_1_" width="1366" height="300"/>
	</defs>
	<clipPath id="SVGID_00000181046273066511092410000012517853951448693648_">
		<use xlink:href="#SVGID_1_"  style="overflow:visible;"/>
	</clipPath>
	
		<rect style="clip-path:url(#SVGID_00000181046273066511092410000012517853951448693648_);fill:#1D5BE6;" width="1366" height="300"/>
	<path id="Trazado_12" style="clip-path:url(#SVGID_00000181046273066511092410000012517853951448693648_);fill:#1BD665;" d="
		M977.6,245.1L977.6,245.1c-30.7,0-55.6-24.9-55.6-55.6s24.9-55.6,55.6-55.6c30.7,0,55.6,24.9,55.6,55.6
		C1033.1,220.2,1008.3,245.1,977.6,245.1C977.6,245.1,977.6,245.1,977.6,245.1"/>
	<path id="Trazado_13" style="clip-path:url(#SVGID_00000181046273066511092410000012517853951448693648_);fill:#FFFFFF;" d="
		M1291.8,245.1L1291.8,245.1c-30.7,0-55.6-24.9-55.6-55.6s24.9-55.6,55.6-55.6c30.7,0,55.6,24.9,55.6,55.6c0,0,0,0,0,0
		C1347.4,220.2,1322.5,245.1,1291.8,245.1"/>
	<g style="clip-path:url(#SVGID_00000181046273066511092410000012517853951448693648_);">
		<path id="Trazado_19" class="st4" d="M904.7,149.8c0,0-0.1-0.1-0.1-0.1L865,189.3l0.9-0.5l-0.9,0.5L826,228.2c0,0,0.1,0.1,0.1,0.1
			c21.5,21.9,56.7,22.3,78.6,0.8s22.3-56.7,0.8-78.6C905.3,150.3,905,150,904.7,149.8"/>
		
			<rect id="Rectángulo_3" x="864.9" y="189" transform="matrix(0.7071 -0.7071 0.7071 0.7071 119.803 667.3308)" class="st5" width="1" height="0"/>
		<path id="Trazado_20" class="st6" d="M904.6,149.6c-21.8-21.6-57-21.5-78.6,0.3c-21.5,21.7-21.5,56.6,0,78.3L904.6,149.6z"/>
	</g>
	<g style="clip-path:url(#SVGID_00000181046273066511092410000012517853951448693648_);">
		<path class="st6" d="M1292.1,245.1h-203.6c-30.8,0-55.8-25-55.8-55.8s25-55.8,55.8-55.8h203.6c30.8,0,55.8,25,55.8,55.8
			S1322.9,245.1,1292.1,245.1z M1088.5,134.5c-30.2,0-54.8,24.6-54.8,54.8s24.6,54.8,54.8,54.8h203.6c30.2,0,54.8-24.6,54.8-54.8
			s-24.6-54.8-54.8-54.8H1088.5z"/>
	</g>
	<g style="clip-path:url(#SVGID_00000181046273066511092410000012517853951448693648_);">
		<path class="st6" d="M977.3,448.7c-30.8,0-55.8-25-55.8-55.8V189.3c0-30.8,25-55.8,55.8-55.8s55.8,25,55.8,55.8v203.6
			C1033.2,423.7,1008.1,448.7,977.3,448.7z M977.3,134.5c-30.2,0-54.8,24.6-54.8,54.8v203.6c0,30.2,24.6,54.8,54.8,54.8
			s54.8-24.6,54.8-54.8V189.3C1032.2,159,1007.6,134.5,977.3,134.5z"/>
	</g>
	<path style="clip-path:url(#SVGID_00000181046273066511092410000012517853951448693648_);fill:#1BD665;" d="M976.8,354.3h152.7
		c30.3,0,54.8-24.5,54.8-54.8v0c0-30.3-24.5-54.8-54.8-54.8H976.8c-30.3,0-54.8,24.5-54.8,54.8v0C922,329.8,946.5,354.3,976.8,354.3
		z"/>
	<path id="Trazado_17" style="clip-path:url(#SVGID_00000181046273066511092410000012517853951448693648_);fill:#0E0916;" d="
		M1181.9,354.4L1181.9,354.4c-30.2,0-54.8-24.5-54.8-54.8c0-30.2,24.5-54.8,54.8-54.8c30.2,0,54.8,24.5,54.8,54.8
		C1236.7,329.8,1212.2,354.4,1181.9,354.4L1181.9,354.4"/>
</g>
</svg>
