<svg xmlns="http://www.w3.org/2000/svg" width="31.5" height="22.5" viewBox="0 0 31.5 22.5">
  <g id="Grupo_46" data-name="Grupo 46" transform="translate(-112.75 -190.75)">
    <path id="Trazado_85" data-name="Trazado 85" d="M29,1.25H0A1.25,1.25,0,0,1-1.25,0,1.25,1.25,0,0,1,0-1.25H29A1.25,1.25,0,0,1,30.25,0,1.25,1.25,0,0,1,29,1.25Z" transform="translate(114 192)" fill="#0e0916"/>
    <path id="Trazado_86" data-name="Trazado 86" d="M29,1.25H0A1.25,1.25,0,0,1-1.25,0,1.25,1.25,0,0,1,0-1.25H29A1.25,1.25,0,0,1,30.25,0,1.25,1.25,0,0,1,29,1.25Z" transform="translate(114 202)" fill="#0e0916"/>
    <path id="Trazado_87" data-name="Trazado 87" d="M14,1.25H0A1.25,1.25,0,0,1-1.25,0,1.25,1.25,0,0,1,0-1.25H14A1.25,1.25,0,0,1,15.25,0,1.25,1.25,0,0,1,14,1.25Z" transform="translate(129 212)" fill="#0e0916"/>
  </g>
</svg>
